<svg xmlns="http://www.w3.org/2000/svg" width="560.432" height="508.477" viewBox="0 0 560.432 508.477">
  <g id="Group_376" data-name="Group 376" transform="translate(-732.453 -7676.712)">
    <path id="Path_1134" data-name="Path 1134" d="M95.75,17.384C163.661-52.6,394.713,101.09,353.723,257.634S124.767,505.583,34.482,429.186,58.557,282.51,68.946,199.95,27.84,87.368,95.75,17.384Z" transform="translate(1292.885 7855.132) rotate(113)" fill="#f9faff"/>
    <g id="Group_343" data-name="Group 343" transform="translate(797.525 7742.721)">
      <g id="Group_113" data-name="Group 113" transform="translate(0 0)">
        <g id="Group_42" data-name="Group 42" transform="translate(0 0)">
          <g id="Shapes">
            <g id="Group_111" data-name="Group 111" transform="translate(372.951 63.471)">
              <line id="Line_41" data-name="Line 41" y1="6.944" transform="translate(8.83 0)" fill="none" stroke="#00043b" stroke-linecap="round" stroke-linejoin="round" stroke-width="0.5"/>
              <line id="Line_42" data-name="Line 42" y1="6.944" transform="translate(8.83 11.203)" fill="none" stroke="#00043b" stroke-linecap="round" stroke-linejoin="round" stroke-width="0.5"/>
              <line id="Line_43" data-name="Line 43" x2="6.944" transform="translate(10.963 8.962)" fill="none" stroke="#00043b" stroke-linecap="round" stroke-linejoin="round" stroke-width="0.5"/>
              <line id="Line_44" data-name="Line 44" x2="6.944" transform="translate(0 8.962)" fill="none" stroke="#00043b" stroke-linecap="round" stroke-linejoin="round" stroke-width="0.5"/>
            </g>
            <path id="Path_150" data-name="Path 150" d="M950.513,84.947s1.583-19.512-10.08-22.721S914.091,57,906.8,71.928s4.627,25.938,11.459,26.6,14.357-9.791,14.9-15.728-12.326-10.572-13.567,0" transform="translate(-858.259 -34.166)" fill="none" stroke="#00043b" stroke-linecap="round" stroke-linejoin="round" stroke-width="0.5"/>
            <path id="Path_153" data-name="Path 153" d="M1128.623,211.3l2.8,20.436,9.441-7.12Z" transform="translate(-733.17 -38.189)" fill="#00043b" stroke="#00043b" stroke-linecap="round" stroke-linejoin="round" stroke-width="0.5"/>
            <path id="Path_475" data-name="Path 475" d="M1128.623,211.3l2.8,20.436,9.441-7.12Z" transform="translate(-843.662 -211.301)" fill="#51576f" stroke="#fd4040" stroke-linecap="round" stroke-linejoin="round" stroke-width="0.5"/>
            <ellipse id="Ellipse_47" data-name="Ellipse 47" cx="5.881" cy="5.881" rx="5.881" ry="5.881" transform="translate(0 61.17)" fill="none" stroke="#00043b" stroke-linecap="round" stroke-linejoin="round" stroke-width="0.5"/>
            <ellipse id="Ellipse_15" data-name="Ellipse 15" cx="9.657" cy="9.657" rx="9.657" ry="9.657" transform="translate(100.556 262.289)" fill="#51576f"/>
          </g>
          <g id="Q_A_s" data-name="Q&amp;A&apos;s" transform="translate(106.945 43.085)">
            <g id="Group_34" data-name="Group 34" transform="translate(0 61.179)">
              <path id="Path_155" data-name="Path 155" d="M755.146,192.02V196.7a.409.409,0,0,1-.408.409H711.376a.409.409,0,0,1-.409-.409V153.339a.409.409,0,0,1,.409-.408h5.876v38.858a.231.231,0,0,0,.231.231Z" transform="translate(-710.967 -147.844)" fill="#51576f"/>
              <g id="Group_33" data-name="Group 33" transform="translate(6.516)">
                <rect id="Rectangle_19" data-name="Rectangle 19" width="43.358" height="44.531" fill="none" stroke="#00043b" stroke-linecap="round" stroke-linejoin="round" stroke-width="0.5"/>
                <path id="Path_156" data-name="Path 156" d="M751.934,155.645c2-.122,6.618,2.128,7.208,13.36s-4.832,15.822-8.56,16.067-8.516-7.41-7.159-17.14S749.288,155.807,751.934,155.645Z" transform="translate(-731.006 -148.981)" fill="none" stroke="#00043b" stroke-linecap="round" stroke-linejoin="round" stroke-width="0.5"/>
                <path id="Path_157" data-name="Path 157" d="M768.649,195.891a12.04,12.04,0,0,1-4.091-1.735c-.07-.041-.145-.087-.215-.134-2.414-1.526-4.561-3.72-3.151-5.49.557-.7,2.965-1.045,3.342,5.147" transform="translate(-738.373 -162.63)" fill="none" stroke="#00043b" stroke-linecap="round" stroke-linejoin="round" stroke-width="0.5"/>
              </g>
            </g>
            <g id="Group_36" data-name="Group 36" transform="translate(66.006 60.596)">
              <path id="Path_158" data-name="Path 158" d="M868.887,192.02V196.7a.409.409,0,0,1-.409.409H825.119a.406.406,0,0,1-.408-.409V153.339a.406.406,0,0,1,.408-.408h5.873v38.858a.231.231,0,0,0,.231.231Z" transform="translate(-824.711 -147.261)" fill="#00043b"/>
              <g id="Group_35" data-name="Group 35" transform="translate(6.352)">
                <path id="Path_159" data-name="Path 159" d="M895.695,143.16v19.957c-4.127-3.708-14.856-14.241-20.288-19.957Z" transform="translate(-852.34 -143.16)" fill="none" stroke="#00043b" stroke-linecap="round" stroke-linejoin="round" stroke-width="0.5"/>
                <path id="Path_160" data-name="Path 160" d="M863.517,160.2c4.352,6.267,5.713,9.075,8.1,11.716,1.083,1.2,3.693,3.509,6.222,3.39a7.781,7.781,0,0,0,1.171-.3v12.691H835.657V143.16h15.79c1.08,1.433,2.815,3.847,4.828,6.7" transform="translate(-835.657 -143.16)" fill="none" stroke="#00043b" stroke-linecap="round" stroke-linejoin="round" stroke-width="0.5"/>
                <path id="Path_161" data-name="Path 161" d="M872.325,165.041c.122.917.215,1.909.273,2.989.255,4.851-.609,8.461-1.973,11.02v.006c-.064.116-.128.226-.2.342-1.787,3.128-4.343,4.7-6.389,4.7-3.838.006-8.513-7.411-7.155-17.142,1.3-9.366,5.525-11.931,8.2-12.256" transform="translate(-844.465 -148.003)" fill="none" stroke="#00043b" stroke-linecap="round" stroke-linejoin="round" stroke-width="0.5"/>
                <path id="Path_162" data-name="Path 162" d="M882.106,194.891a12.046,12.046,0,0,1-4.091-1.735c-.069-.041-.145-.087-.214-.133-2.414-1.526-4.561-3.72-3.151-5.49.557-.7,2.965-1.045,3.343,5.147" transform="translate(-851.833 -161.628)" fill="none" stroke="#00043b" stroke-linecap="round" stroke-linejoin="round" stroke-width="0.5"/>
              </g>
            </g>
            <g id="Group_38" data-name="Group 38" transform="translate(34.713 125.065)">
              <path id="Path_163" data-name="Path 163" d="M814.961,302.5v4.678a.407.407,0,0,1-.409.409H771.194a.407.407,0,0,1-.409-.409V263.818a.407.407,0,0,1,.409-.409h5.876v38.858a.23.23,0,0,0,.231.232Z" transform="translate(-770.785 -258.097)" fill="#00043b"/>
              <g id="Group_37" data-name="Group 37" transform="translate(6.516)">
                <rect id="Rectangle_20" data-name="Rectangle 20" width="43.358" height="44.531" fill="none" stroke="#00043b" stroke-linecap="round" stroke-linejoin="round" stroke-width="0.5"/>
                <path id="Path_164" data-name="Path 164" d="M811.753,265.737c2-.123,6.618,2.127,7.208,13.36s-4.832,15.821-8.56,16.066-8.516-7.41-7.159-17.14S809.106,265.9,811.753,265.737Z" transform="translate(-790.824 -259.072)" fill="none" stroke="#00043b" stroke-linecap="round" stroke-linejoin="round" stroke-width="0.5"/>
                <path id="Path_165" data-name="Path 165" d="M828.467,305.982a12.047,12.047,0,0,1-4.091-1.735c-.07-.041-.145-.087-.215-.134-2.414-1.526-4.561-3.72-3.151-5.49.557-.7,2.965-1.045,3.343,5.147" transform="translate(-798.192 -272.722)" fill="none" stroke="#00043b" stroke-linecap="round" stroke-linejoin="round" stroke-width="0.5"/>
              </g>
            </g>
            <g id="answer" transform="translate(33.134)">
              <path id="Path_166" data-name="Path 166" d="M811.694,90.674h-2.151c-.373-.185-.814-.409-1.336-.675-1.653-.846-3.263-1.714-3.419-1.8a2.385,2.385,0,0,0-.988-.309.349.349,0,0,0-.313.124.515.515,0,0,0-.065.42c.157.64,1.127,1.472,2.24,2.243H768.474a.41.41,0,0,1-.409-.412V46.9a.41.41,0,0,1,.409-.409h5.876V85.356a.232.232,0,0,0,.231.231h31.6c.117.118.238.235.363.356,1.23,1.191,2.6,2.382,3.438,3.117.708.619,1.02.893,1.1,1a2.462,2.462,0,0,0,.33.334A2.112,2.112,0,0,1,811.694,90.674Z" transform="translate(-768.065 -41.995)" fill="#51576f"/>
              <path id="Path_167" data-name="Path 167" d="M841.771,114.155v2.382c-.842-.59-1.9-1.45-2.926-2.321-.142-.117-.281-.238-.419-.356h3.093Z" transform="translate(-797.595 -70.267)" fill="#182fbd" stroke="#707070" stroke-width="0.5"/>
              <line id="Line_45" data-name="Line 45" x1="1.393" transform="translate(47.081 43.593)" fill="none" stroke="#00043b" stroke-linecap="round" stroke-linejoin="round" stroke-width="0.5"/>
              <line id="Line_46" data-name="Line 46" x1="2.559" transform="translate(41.116 43.593)" fill="none" stroke="#00043b" stroke-linecap="round" stroke-linejoin="round" stroke-width="0.5"/>
              <path id="Path_168" data-name="Path 168" d="M804.122,81.032l6.517-27.292,7.479,27.116" transform="translate(-783.198 -45.036)" fill="none" stroke="#00043b" stroke-linecap="round" stroke-linejoin="round" stroke-width="0.5"/>
              <line id="Line_47" data-name="Line 47" x1="10.614" transform="translate(22.517 29.334)" fill="none" stroke="#00043b" stroke-linecap="round" stroke-linejoin="round" stroke-width="0.5"/>
              <path id="Path_169" data-name="Path 169" d="M810.7,82.333H779.126V38.74h43.593V79.785" transform="translate(-772.707 -38.74)" fill="none" stroke="#00043b" stroke-linecap="round" stroke-linejoin="round" stroke-width="0.5"/>
            </g>
          </g>
          <g id="Monica" transform="translate(175.323 60.308)">
            <g id="Group_39" data-name="Group 39" transform="translate(0 17.086)">
              <path id="Path_170" data-name="Path 170" d="M855.845,124.149a26.444,26.444,0,0,1-3.25-3.743c-.43-1.468.087-5.879-.412-7.55-.435-1.457-1.149-5.037-1.224-5.71s-.139-5.449-1.155-5.437c-1.236.012-1.5,1.242-1.433,3.041s.128,5.072-.563,5.252c-.348.087-2.327-2.64-4.242-5.4-1.8-2.594-3.545-5.211-3.83-5.559-1.538-1.863-2.884-1.265-2.553.07.284,1.155,2.82,4.857,4.272,6.8a2.281,2.281,0,0,1,.574,1.236c-.006.54-.7.516-1.393,0a2.911,2.911,0,0,1-.36-.308c-1.137-1.137-4.9-5.757-6.024-6.8-1.073-1-2.374.075-1.572,1.37.545.888,2.925,3.8,4.55,5.733.749.894,1.334,1.578,1.5,1.764,1.062,1.161.818,2.275-1,.911-.731-.546-1.88-1.6-3.058-2.675a31.655,31.655,0,0,0-4.2-3.563c-1.01-.429-1.875.627-.528,2.02.354.366.929.917,1.6,1.544,1.886,1.758,4.515,4.091,5.031,4.474,1.155.871.836,1.695-1.056.882-1.213-.522-4.625-2.472-5.24-2.745-1.167-.522-2.455.226-.377,2.014,1.81,1.555,7.706,4.1,8.641,4.985s3.2,3.586,4.091,4.138,4.016,1.468,4.793,1.863a9.776,9.776,0,0,1,1.143,1.393" transform="translate(-828.798 -97.862)" fill="none" stroke="#00043b" stroke-linejoin="round" stroke-width="0.5"/>
              <path id="Path_171" data-name="Path 171" d="M871.187,154.7c2.246,3.174,4.834,6.883,7.242,10.341" transform="translate(-846.588 -121.716)" fill="none" stroke="#00043b" stroke-linejoin="round" stroke-width="0.5"/>
              <path id="Path_172" data-name="Path 172" d="M910.367,180.764c6.082-1.532,24.211-7.9,30.437-11.49,7.236-4.178-4.068-12.384-4.068-12.384L921.951,165s-8.588,5.39-9.885,5.228c-.438-.055-.785-.476-1.7-1.348" transform="translate(-863.032 -122.636)" fill="none" stroke="#00043b" stroke-linejoin="round" stroke-width="0.5"/>
            </g>
            <g id="Group_40" data-name="Group 40" transform="translate(125.671 64.659)">
              <path id="Path_173" data-name="Path 173" d="M1080.053,254.926c-2.205-1.683-4.973-4.143-5.658-6.343-1.178-3.789-2.64-27.3-5.8-39.037s-12.326-29.706-12.326-29.706l-10.916,5.757s9.43,20.473,10.916,24.709,6.181,22.394,7.329,26.839a131.444,131.444,0,0,0,4.637,12.761c.035,1.2-1.109,3.412-.714,7.1a11.758,11.758,0,0,0,.243,1.456c.662,3,2.212,5.409,2.867,7.091.76,1.944,2.095,2.652,2.681,2.426s.7-1.23.441-2-2.681-5.049-2.763-5.281a7.952,7.952,0,0,1-.023-1.619,12.151,12.151,0,0,0-.162-1.5c-.11-.76-.238-1.509-.238-1.509l.615,1.4" transform="translate(-1045.357 -179.84)" fill="none" stroke="#00043b" stroke-linejoin="round" stroke-width="0.5"/>
              <path id="Path_174" data-name="Path 174" d="M1076,310.594l-11.026,3.174,15.3,49.361,33.728-11.3-15.3-47.771-10.416,3-8.868,2.553-.377.1" transform="translate(-1053.591 -231.974)" fill="none" stroke="#00043b" stroke-linecap="round" stroke-linejoin="round" stroke-width="0.5"/>
              <path id="Path_175" data-name="Path 175" d="M1091.537,343.353c.029.093.052.18.075.267.87,2.925,2.82,4.521,3.917,4.259,1.056-.255,1.126-2.147-.638-3.354a10.964,10.964,0,0,0-3.238-1.143c-.041-.012-.076-.018-.116-.029-2.309-.534-4.81-.853-4.81-.853" transform="translate(-1062.719 -248.107)" fill="none" stroke="#00043b" stroke-linecap="round" stroke-linejoin="round" stroke-width="0.5"/>
              <path id="Path_176" data-name="Path 176" d="M1099.36,331.987c4.051-1.253,9.143,2.451,11.868,9.752s.855,17.111-2.677,18.17c-5.424,1.627-11.418-5.354-13.072-11.784S1094.974,333.344,1099.36,331.987Z" transform="translate(-1066.09 -243.594)" fill="none" stroke="#00043b" stroke-linecap="round" stroke-linejoin="round" stroke-width="0.5"/>
            </g>
            <g id="Group_41" data-name="Group 41" transform="translate(89.683 190.137)">
              <path id="Path_177" data-name="Path 177" d="M984.008,403.414S985.475,414,985.6,418.34s-.031,21.132.5,28.235c.255,3.42,5.924,37.446,5.924,37.446h7.155l1.653-23.229s.531-11.895.634-14.785c.09-2.494-2.7-24.379-2.53-26.565s1.774-15.075,1.777-16.028-.485-7.345-.485-7.345L983.342,397.4Z" transform="translate(-983.342 -396.068)" fill="none" stroke="#00043b" stroke-miterlimit="10" stroke-width="0.5"/>
              <path id="Path_178" data-name="Path 178" d="M1029.123,435.575a33.621,33.621,0,0,0,3.685-.465" transform="translate(-1002.556 -412.454)" fill="none" stroke="#00043b" stroke-linecap="round" stroke-miterlimit="10" stroke-width="0.5"/>
              <path id="Path_179" data-name="Path 179" d="M1016.928,396.068s-1.342,14.936-.273,21.369a61.85,61.85,0,0,0,7.752,21.092c4.071,6.66,23.437,35.956,23.437,35.956l7.5-.859s-3.341-16.8-6.252-22.411-15.613-27.487-16.917-31.2.126-20.745.126-20.745Z" transform="translate(-997.15 -396.068)" fill="none" stroke="#00043b" stroke-miterlimit="10" stroke-width="0.5"/>
            </g>
            <g id="dress" transform="translate(72.308 44.263)">
              <path id="Path_180" data-name="Path 180" d="M953.817,151.764s4.976-3.911,14.219-6.043,39.814-1.422,44.791,6.754a105.122,105.122,0,0,1,6.754,12.442s-5.688,8.887-9.953,9.6-2.844,2.843-2.844,2.843-1,17.387-.47,22.386c1.381,13.053,6.778,22.439,8.788,40.186,1.922,16.97-4.407,40.518-4.763,47.628-.32,6.4-.355,10.664-.355,10.664s-13.509,2.844-16.708,1.422c-2.133-2.488-2.844-8.177-4.266-8.177s-3.2,7.11-4.266,8.532c-1.422,1.067-14.574,1.422-15.641.711s-8.983-32.726-7.917-55.477,8.314-29.713,8.272-52.59c-.026-14.574-3.2-28.083-3.91-28.794-1.067,0-4.266,1.778-8.176,1.778C954.883,164.561,952.395,153.541,953.817,151.764Z" transform="translate(-953.402 -144.694)" fill="#51576f" stroke="#51576f" stroke-width="0.5"/>
              <path id="Path_181" data-name="Path 181" d="M967.677,174.936a32.254,32.254,0,0,1-7.618,3.333c2.171.428,8.283-1.726,8.283-1.726Z" transform="translate(-956.195 -157.386)" fill="#00043b" stroke="#00043b" stroke-linejoin="round" stroke-width="0.5"/>
            </g>
            <g id="head" transform="translate(88.44 0)">
              <path id="Path_182" data-name="Path 182" d="M986.091,84.182a21.727,21.727,0,0,0-2.814,6.054c-.513,2.6.073,4.872-.359,6.446-.289,1.052-1.736,3.774-1.718,4.221s.917.853,1.058,1.058-1.226,6.59,1.388,9.2,8.91-1.892,8.91-1.892S999.087,78.837,986.091,84.182Z" transform="translate(-981.199 -74.77)" fill="none" stroke="#00043b" stroke-miterlimit="10" stroke-width="0.5"/>
              <path id="Path_183" data-name="Path 183" d="M985.21,81.942s-1.777-2.133-.711-6.043,5.365-5.936,7.821-6.754c4.266-1.422,14.93-1.067,20.973,3.91s5.688,13.508,5.688,13.508,0,8.887,2.133,13.508,9.243,12.087,11.02,16.708,1.777,14.93-4.977,20.263c-.711,4.977-5.332,10.309-8.887,10.664-2.844,3.555-9.242,4.622-11.731,4.266S997.3,150.194,994.1,143.8c-2.133-.711-6.762-9.155-6.043-17.774.711-8.532,2.132-14.22,2.843-20.618s.711-15.641-.355-20.618S988.409,79.1,987.7,79.1,985.566,80.52,985.21,81.942Z" transform="translate(-982.441 -68.418)" fill="#00043b" stroke="#00043b" stroke-width="0.5"/>
            </g>
            <path id="Path_184" data-name="Path 184" d="M994.766,551.275c.762-2.527.071-6.64-1.14-11.084-7.061.676-8.36-.32-10.5-.221-.436.545-.215,1.54-2.473,2.241a77.651,77.651,0,0,1-9.728,2.739c-2.233.37-4.533,3.223-3.392,5.568.076.347.268,1.231.309,1.451a1.583,1.583,0,0,0,.309.714h-.016a2.874,2.874,0,0,0,1.934,1.046c1.49.287,19.308.436,23.559-.237.337-.068.451-.795.55-1.208h0l.341-.975Zm-1.023,1.016c-1.775.043-6.735.286-12.621.354-3.406.039-9.326.059-12.308.042-.119-.035-.464-.187-.577-.792-.018-.1-.065-.319-.118-.569,1.531,1.262,6.334.53,8.73.53h7.52c2.633,0,7.419-.249,9.7-.5Z" transform="translate(-886.896 -266.322)" fill="#00043b"/>
            <path id="Path_185" data-name="Path 185" d="M1076.458,535.457l-.7-2.007.039.005a5.637,5.637,0,0,0-1.142-2.758c-.436-.772-1.578-1.712-2.082-2.652s-.269-2.687-.954-2.922-3.378,1.209-5.829,1.511-4.3-.628-4.634-.268.437,2.116.739,2.384.067,3.9.2,5.541a12.717,12.717,0,0,1-1.88,5.776c-.537.571-2.754.705-2.754.705s-3.144.172-4.2,1.167a3.082,3.082,0,0,0,.918,4.988,5.975,5.975,0,0,0,2.489.45c.409,0,.743-.024.931-.042,2.749.071,8.946.054,10.535-1.467a33.847,33.847,0,0,1,4.055-3.6c.932-.6,2.846-1.335,3.61-2.468C1076.861,538.224,1077.115,536.418,1076.458,535.457Zm-3.412-1.166c-3.178.727-6.657,6.45-8.84,8.882a16.275,16.275,0,0,1-6.491,3.744v-.005a7.364,7.364,0,0,1-3.354-.352,3,3,0,0,1-.763-.531c1.12.479,3.047.526,5.681-.655,3.593-1.612,7.455-6.448,8.026-7.287a22.6,22.6,0,0,1,4.319-4.2,7.539,7.539,0,0,1,3.685-.5l.513,1.477A4,4,0,0,0,1073.046,534.291Z" transform="translate(-922.621 -260.084)" fill="#00043b"/>
          </g>
        </g>
        <g id="Shelf" transform="translate(2.925 238.99)">
          <path id="Path_193" data-name="Path 193" d="M519.275,311.947H445.289a.476.476,0,0,0-.476.476v107.57a.476.476,0,0,0,.476.476h73.986a.476.476,0,0,0,.476-.476V312.423A.476.476,0,0,0,519.275,311.947Zm-3.41,107.031a.38.38,0,0,1-.38.38H449.079a.38.38,0,0,1-.38-.38V314.27a.38.38,0,0,1,.38-.38h66.406a.38.38,0,0,1,.38.38Z" transform="translate(-444.813 -311.947)" fill="#00043b" stroke="#00043b" stroke-width="0.5"/>
          <line id="Line_60" data-name="Line 60" x2="67.999" transform="translate(4.024 34.555)" fill="none" stroke="#00043b" stroke-miterlimit="10" stroke-width="0.5"/>
          <line id="Line_61" data-name="Line 61" x2="67.999" transform="translate(2.914 70.775)" fill="none" stroke="#00043b" stroke-miterlimit="10" stroke-width="0.5"/>
          <rect id="Rectangle_28" data-name="Rectangle 28" width="31.918" height="5.273" rx="0.638" transform="translate(20.538 16.653)" fill="#00043b" stroke="#00043b" stroke-width="0.5"/>
          <rect id="Rectangle_29" data-name="Rectangle 29" width="31.918" height="5.273" rx="0.638" transform="translate(21.232 50.097)" fill="#00043b" stroke="#00043b" stroke-width="0.5"/>
          <rect id="Rectangle_30" data-name="Rectangle 30" width="31.918" height="5.273" rx="0.638" transform="translate(21.51 86.179)" fill="#00043b" stroke="#00043b" stroke-width="0.5"/>
        </g>
        <g id="Monstera" transform="translate(7.625 136.268)">
          <path id="Path_194" data-name="Path 194" d="M522.164,258.831H506.587a1.877,1.877,0,0,1-1.878-1.878V212.378a1.877,1.877,0,0,1,1.878-1.877h15.577a1.877,1.877,0,0,1,1.877,1.877v44.575A1.877,1.877,0,0,1,522.164,258.831Z" transform="translate(-483.386 -156.145)" fill="none" stroke="#00043b" stroke-linecap="round" stroke-linejoin="round" stroke-width="0.5"/>
          <line id="Line_62" data-name="Line 62" x1="19.332" transform="translate(21.324 75.822)" fill="none" stroke="#00043b" stroke-linecap="round" stroke-linejoin="round" stroke-width="0.5"/>
          <path id="Path_195" data-name="Path 195" d="M518.928,241.671s0-22.721,1.129-30.128,4.268-19.709,5.4-21.843" transform="translate(-490.825 -145.262)" fill="none" stroke="#00043b" stroke-linecap="round" stroke-linejoin="round" stroke-width="0.5"/>
          <path id="Path_196" data-name="Path 196" d="M532.353,183.381s-.753,3.013-.376,3.264,2.385-2.385,2.385-2.385Z" transform="translate(-497.598 -141.955)" fill="#00043b" stroke="#00043b" stroke-width="0.5"/>
          <path id="Path_197" data-name="Path 197" d="M546.019,114.57c-.376-1.507-2.008-4.519-2.259-4.519s-3.515,2.009-5.022,2.511-4.017,1.381-4.645.251,1.13-2.134,1.758-2.26,4.143-.879,4.9-1.129a3.986,3.986,0,0,0,1.632-1c0-.125-3.139-3.389-3.641-4.77a27.207,27.207,0,0,1-2.32-7.154c-.9,1.488-5.6,9.326-7.365,13.651-1.362,3.329-2.456,6.356-3.514,9.282-.713,1.972-1.386,3.835-2.132,5.777-1.4,3.646-5.492,11.987-5.532,12.071a.251.251,0,0,1-.226.141.251.251,0,0,1-.226-.361c.041-.084,4.121-8.406,5.515-12.031.746-1.937,1.419-3.8,2.13-5.767,1.059-2.931,2.156-5.962,3.521-9.3a132.4,132.4,0,0,1,7.243-13.462,22.88,22.88,0,0,1-10.024,4.393c-5.649,1-6.151.126-9.918,1.255a7.661,7.661,0,0,0,.753,3.892c.5.879,2.009,4.268,2.385,5.021s.753,3.39.126,3.641-2.134-.5-2.636-1.883-2.762-8.537-2.762-10.043c-.753,0-7.155,3.891-7.281,5.523.627,1.506,3.263,3.138,4.393,4.645s4.143,5.775,2.887,6.653-4.9-1.883-5.775-3.515a42.024,42.024,0,0,1-2.636-6.025c-.377-.251-4.77,8.662-4.268,9.917s1.757,1.506,3.389,3.891,3.389,5.775,2.762,6.151-3.766-1.883-4.519-3.389-1.883-3.389-2.134-3.389-.753,5.021-.628,5.649,1.381,4.77,4.017,6.779c.879-.125,1,0,1.255.251a1.671,1.671,0,0,1,.377.879,10.229,10.229,0,0,0,4.519,1.632c1.758,0,5.781-.341,6.287-.168a13.056,13.056,0,0,1,1.245.544s2.134,5.021,7.155,5.523,10.67-1.757,11.3-2.636c-.126-.5-2.009-.879-2.636-1a27.769,27.769,0,0,1-5.649-1.255c-1.632-.753-3.766-2.887-2.511-4.143s3.892.627,3.892.627a22.93,22.93,0,0,0,4.017,2.385c1.632.628,5.273,1.255,6.151.879s3.138-4.393,3.138-4.645-1.757-.753-3.766-1-4.268-1.883-3.264-3.139,4.519.126,5.022.377a12.065,12.065,0,0,0,3.264,1c.377-.126,1.506-3.013,1.757-3.766a10.705,10.705,0,0,0,.628-2.637,17.506,17.506,0,0,0-5.022-.376c-1.38.251-3.766,1-4.519.753s-1.381-.879-1.13-1.506a3.24,3.24,0,0,1,2.762-1.255,26.568,26.568,0,0,0,4.519-.251,16.331,16.331,0,0,0,3.891-1.13A42.037,42.037,0,0,0,546.019,114.57ZM523.3,103.9c.66-.991,1.381.5,1.758,1.632s1,2.762,0,3.139-1.632-2.134-1.758-2.762A3.607,3.607,0,0,1,523.3,103.9Zm7.156,26.738c-.628.251-1.507-.5-2.385-1.507s-.5-1.506-.251-1.632a1.792,1.792,0,0,1,2.26.628C530.7,128.88,531.081,130.387,530.453,130.638Zm4.268-10.043c-1.13-.125-1.982-1.057-1.758-1.506.251-.5,1-.628,2.134-.628a1.632,1.632,0,0,1,1.632,1.507C536.729,120.47,535.851,120.721,534.721,120.6Z" transform="translate(-480.884 -96.493)" fill="#00043b"/>
          <path id="Path_198" data-name="Path 198" d="M513.662,205.235c7.03,14.562,9.038,43.56,9.038,43.56" transform="translate(-488.07 -153.39)" fill="none" stroke="#00043b" stroke-miterlimit="10" stroke-width="0.5"/>
          <path id="Path_199" data-name="Path 199" d="M462.353,116.754c.753-.251,3.264,3.515,3.264,4.143s-2.761,5.649-1.129,7.155,2.134-4.268,2.511-4.771,5.021,4.9,5.021,5.775-3.389,4.77-2.26,6.277,3.013-4.143,3.515-4.143,2.26,3.264,2.26,4.394-3.641,7.908-2.26,9.415,3.264-5.523,4.142-6.4,4.519,7.406,4.519,8.159-1.255.125-2.385,1.13-.753,3.389,1,3.138,1.632-.753,2.259-.879,3.264,7.155,2.762,8.787c-1.757.251-16.571-4.017-22.722-14.939S462.353,116.754,462.353,116.754Z" transform="translate(-459.984 -107.088)" fill="#00043b" stroke="#00043b" stroke-miterlimit="10" stroke-width="0.5"/>
        </g>
      </g>
    </g>
  </g>
</svg>
